# xmcd
#
# Track frame offsets: 
#        150
#        58052
#        95614
#        129771
#        152748
#        165115
#        189237
#        213324
#        256111
#
# Disc length: 3819 seconds
#
# Revision: 1
# Processed by: cddbd v1.5.2PL0 Copyright (c) Steve Scherf et al.
# Submitted via: ExactAudioCopy v0.99pb5
#
DISCID=670ee909
DTITLE=Wynton Kelly Trio (w. Wes Montgomery) - Complete Live At Half N
DTITLE=ote [CD1]
DYEAR=1965
DGENRE=Jazz
TTITLE0=No Blues
TTITLE1=If You Could See Me Now
TTITLE2=Willow Weep For Me
TTITLE3=Impressions
TTITLE4=Portrait Of Jennie
TTITLE5=The Surrey With The Fringe On Top
TTITLE6=Oh You Crazy Moon
TTITLE7=Four On Six
TTITLE8=Misty
EXTD=YEAR: 1965
EXTT0=
EXTT1=
EXTT2=
EXTT3=
EXTT4=
EXTT5=
EXTT6=
EXTT7=
EXTT8=
PLAYORDER=
